<svg width="126" height="42" viewBox="0 0 126 42" fill="none" xmlns="http://www.w3.org/2000/svg">
<path d="M0 8C0 3.58172 3.58172 0 8 0H118C122.418 0 126 3.58172 126 8V34C126 38.4183 122.418 42 118 42H8C3.58172 42 0 38.4183 0 34V8Z" fill="#1B1B1B" fill-opacity="0.3"/>
<path d="M16.6667 13H12.6667C12.3 13 12 13.3 12 13.6667V28.3333C12 28.7 12.3 29 12.6667 29H16.6667C17.0333 29 17.3333 28.7 17.3333 28.3333V13.6667C17.3333 13.3 17.0333 13 16.6667 13ZM16 17H13.3333V15.6667H16V17Z" fill="#FFDF7E"/>
<path d="M23.3334 13H19.3334C18.9667 13 18.6667 13.3 18.6667 13.6667V28.3333C18.6667 28.7 18.9667 29 19.3334 29H23.3334C23.7001 29 24.0001 28.7 24.0001 28.3333V13.6667C24.0001 13.3 23.7001 13 23.3334 13ZM22.6667 17H20.0001V15.6667H22.6667V17Z" fill="#DC9C5D"/>
<path d="M27.9387 14.0307L24.3667 15.8307C24.0387 15.996 23.9067 16.3987 24.0707 16.7253L30.0707 28.632C30.236 28.96 30.6387 29.092 30.9653 28.928L34.5373 27.128C34.8653 26.9627 34.9973 26.56 34.8333 26.2333L28.8333 14.3267C28.668 13.9987 28.2654 13.8667 27.9387 14.0307Z" fill="#FFA97E"/>
<path d="M31.3333 28.3333C31.3333 28.7013 31.0347 29 30.6667 29C30.2987 29 30 28.7013 30 28.3333C30 27.9653 30.2987 27.6667 30.6667 27.6667C31.0347 27.6667 31.3333 27.9653 31.3333 28.3333Z" fill="#FFA97E"/>
<path d="M42.5596 15.8C43.5836 15.8 44.3462 16.04 44.8476 16.52C45.3489 17 45.5996 17.7093 45.5996 18.648C45.5996 19.1493 45.4769 19.592 45.2316 19.976C44.9862 20.3493 44.6236 20.6427 44.1436 20.856C43.6636 21.0587 43.0716 21.16 42.3676 21.16L42.4316 20.44C42.7622 20.44 43.1409 20.488 43.5676 20.584C43.9942 20.6693 44.4049 20.8293 44.7996 21.064C45.2049 21.288 45.5356 21.608 45.7916 22.024C46.0582 22.4293 46.1916 22.952 46.1916 23.592C46.1916 24.296 46.0742 24.872 45.8396 25.32C45.6156 25.768 45.3169 26.1147 44.9436 26.36C44.5702 26.6053 44.1702 26.776 43.7436 26.872C43.3169 26.9573 42.9062 27 42.5116 27H38.5276C38.2502 27 38.0156 26.9093 37.8236 26.728C37.6422 26.536 37.5516 26.3013 37.5516 26.024V16.776C37.5516 16.4987 37.6422 16.2693 37.8236 16.088C38.0156 15.896 38.2502 15.8 38.5276 15.8H42.5596ZM42.2716 17.688H39.4236L39.6316 17.432V20.328L39.4396 20.184H42.3196C42.6289 20.184 42.9062 20.0827 43.1516 19.88C43.3969 19.6773 43.5196 19.384 43.5196 19C43.5196 18.5413 43.4022 18.2107 43.1676 18.008C42.9436 17.7947 42.6449 17.688 42.2716 17.688ZM42.3996 22.072H39.4876L39.6316 21.944V25.32L39.4716 25.16H42.5116C43.0022 25.16 43.3916 25.032 43.6796 24.776C43.9676 24.5093 44.1116 24.1147 44.1116 23.592C44.1116 23.112 44.0156 22.7653 43.8236 22.552C43.6316 22.3387 43.4022 22.2053 43.1356 22.152C42.8689 22.0987 42.6236 22.072 42.3996 22.072ZM56.1643 22.728C56.1643 23.6027 55.967 24.376 55.5723 25.048C55.1883 25.7093 54.6656 26.2267 54.0043 26.6C53.3536 26.9733 52.623 27.16 51.8123 27.16C51.0016 27.16 50.2656 26.9733 49.6043 26.6C48.9536 26.2267 48.431 25.7093 48.0363 25.048C47.6523 24.376 47.4603 23.6027 47.4603 22.728C47.4603 21.8533 47.6523 21.0853 48.0363 20.424C48.431 19.752 48.9536 19.2293 49.6043 18.856C50.2656 18.472 51.0016 18.28 51.8123 18.28C52.623 18.28 53.3536 18.472 54.0043 18.856C54.6656 19.2293 55.1883 19.752 55.5723 20.424C55.967 21.0853 56.1643 21.8533 56.1643 22.728ZM54.2443 22.728C54.2443 22.184 54.1323 21.7147 53.9083 21.32C53.695 20.9147 53.4016 20.6 53.0283 20.376C52.6656 20.152 52.2603 20.04 51.8123 20.04C51.3643 20.04 50.9536 20.152 50.5803 20.376C50.2176 20.6 49.9243 20.9147 49.7003 21.32C49.487 21.7147 49.3803 22.184 49.3803 22.728C49.3803 23.2613 49.487 23.7307 49.7003 24.136C49.9243 24.5307 50.2176 24.84 50.5803 25.064C50.9536 25.288 51.3643 25.4 51.8123 25.4C52.2603 25.4 52.6656 25.288 53.0283 25.064C53.4016 24.84 53.695 24.5307 53.9083 24.136C54.1323 23.7307 54.2443 23.2613 54.2443 22.728ZM66.1487 22.728C66.1487 23.6027 65.9514 24.376 65.5567 25.048C65.1727 25.7093 64.65 26.2267 63.9887 26.6C63.338 26.9733 62.6074 27.16 61.7967 27.16C60.986 27.16 60.25 26.9733 59.5887 26.6C58.938 26.2267 58.4154 25.7093 58.0207 25.048C57.6367 24.376 57.4447 23.6027 57.4447 22.728C57.4447 21.8533 57.6367 21.0853 58.0207 20.424C58.4154 19.752 58.938 19.2293 59.5887 18.856C60.25 18.472 60.986 18.28 61.7967 18.28C62.6074 18.28 63.338 18.472 63.9887 18.856C64.65 19.2293 65.1727 19.752 65.5567 20.424C65.9514 21.0853 66.1487 21.8533 66.1487 22.728ZM64.2287 22.728C64.2287 22.184 64.1167 21.7147 63.8927 21.32C63.6794 20.9147 63.386 20.6 63.0127 20.376C62.65 20.152 62.2447 20.04 61.7967 20.04C61.3487 20.04 60.938 20.152 60.5647 20.376C60.202 20.6 59.9087 20.9147 59.6847 21.32C59.4714 21.7147 59.3647 22.184 59.3647 22.728C59.3647 23.2613 59.4714 23.7307 59.6847 24.136C59.9087 24.5307 60.202 24.84 60.5647 25.064C60.938 25.288 61.3487 25.4 61.7967 25.4C62.2447 25.4 62.65 25.288 63.0127 25.064C63.386 24.84 63.6794 24.5307 63.8927 24.136C64.1167 23.7307 64.2287 23.2613 64.2287 22.728ZM68.9491 27C68.6717 27 68.4424 26.9093 68.2611 26.728C68.0797 26.536 67.9891 26.3013 67.9891 26.024V16.136C67.9891 15.8587 68.0797 15.6293 68.2611 15.448C68.4424 15.256 68.6717 15.16 68.9491 15.16C69.2264 15.16 69.4557 15.256 69.6371 15.448C69.8184 15.6293 69.9091 15.8587 69.9091 16.136V26.024C69.9091 26.3013 69.8184 26.536 69.6371 26.728C69.4557 26.9093 69.2264 27 68.9491 27ZM74.0371 18.44C74.2824 18.44 74.4957 18.5413 74.6771 18.744C74.8584 18.9467 74.9491 19.144 74.9491 19.336C74.9491 19.592 74.8211 19.832 74.5651 20.056L69.7491 24.488L69.6691 22.28L73.3331 18.744C73.5357 18.5413 73.7704 18.44 74.0371 18.44ZM74.2771 26.984C73.9997 26.984 73.7651 26.8773 73.5731 26.664L70.6131 23.528L72.0691 22.184L74.9491 25.32C75.1517 25.5333 75.2531 25.7733 75.2531 26.04C75.2531 26.3173 75.1411 26.5467 74.9171 26.728C74.7037 26.8987 74.4904 26.984 74.2771 26.984ZM76.3643 25.672C76.2576 25.5227 76.2096 25.3307 76.2203 25.096C76.231 24.8613 76.3696 24.6587 76.6363 24.488C76.807 24.3813 76.9883 24.3387 77.1803 24.36C77.3723 24.3707 77.559 24.4667 77.7403 24.648C78.0496 24.9573 78.375 25.1973 78.7163 25.368C79.0576 25.5387 79.4843 25.624 79.9963 25.624C80.1563 25.6133 80.3323 25.592 80.5243 25.56C80.7163 25.5173 80.8816 25.432 81.0203 25.304C81.1696 25.1653 81.2443 24.9573 81.2443 24.68C81.2443 24.4453 81.1643 24.2587 81.0043 24.12C80.8443 23.9813 80.631 23.864 80.3643 23.768C80.1083 23.672 79.8203 23.5813 79.5003 23.496C79.1696 23.4 78.8283 23.2933 78.4763 23.176C78.135 23.0587 77.8203 22.9093 77.5323 22.728C77.2443 22.536 77.0096 22.2853 76.8283 21.976C76.647 21.6667 76.5563 21.2773 76.5563 20.808C76.5563 20.2747 76.7056 19.8213 77.0043 19.448C77.303 19.0747 77.687 18.7867 78.1563 18.584C78.6363 18.3813 79.1376 18.28 79.6603 18.28C79.991 18.28 80.3376 18.3227 80.7003 18.408C81.063 18.4827 81.4096 18.6107 81.7403 18.792C82.071 18.9627 82.3483 19.192 82.5723 19.48C82.6896 19.64 82.759 19.832 82.7803 20.056C82.8016 20.28 82.7003 20.4827 82.4763 20.664C82.3163 20.792 82.1296 20.8507 81.9163 20.84C81.703 20.8187 81.527 20.744 81.3883 20.616C81.207 20.3813 80.9616 20.1947 80.6523 20.056C80.3536 19.9173 80.007 19.848 79.6123 19.848C79.4523 19.848 79.2763 19.8693 79.0843 19.912C78.903 19.944 78.743 20.024 78.6043 20.152C78.4656 20.2693 78.3963 20.4613 78.3963 20.728C78.3963 20.9733 78.4763 21.1707 78.6363 21.32C78.7963 21.4587 79.0096 21.576 79.2763 21.672C79.5536 21.7573 79.847 21.8427 80.1563 21.928C80.4763 22.0133 80.8016 22.1147 81.1323 22.232C81.463 22.3493 81.767 22.504 82.0443 22.696C82.3216 22.888 82.5456 23.1387 82.7163 23.448C82.887 23.7467 82.9723 24.1307 82.9723 24.6C82.9723 25.144 82.8123 25.608 82.4923 25.992C82.1723 26.376 81.7723 26.6693 81.2923 26.872C80.8123 27.064 80.3216 27.16 79.8203 27.16C79.191 27.16 78.5616 27.0533 77.9323 26.84C77.303 26.616 76.7803 26.2267 76.3643 25.672ZM89.0751 18.28C89.8431 18.28 90.4244 18.4453 90.8191 18.776C91.2244 19.1067 91.5017 19.5493 91.6511 20.104C91.8004 20.648 91.8751 21.256 91.8751 21.928V26.024C91.8751 26.3013 91.7844 26.536 91.6031 26.728C91.4217 26.9093 91.1924 27 90.9151 27C90.6377 27 90.4084 26.9093 90.2271 26.728C90.0457 26.536 89.9551 26.3013 89.9551 26.024V21.928C89.9551 21.576 89.9124 21.2613 89.8271 20.984C89.7417 20.696 89.5871 20.4667 89.3631 20.296C89.1391 20.1253 88.8191 20.04 88.4031 20.04C87.9977 20.04 87.6511 20.1253 87.3631 20.296C87.0751 20.4667 86.8564 20.696 86.7071 20.984C86.5684 21.2613 86.4991 21.576 86.4991 21.928V26.024C86.4991 26.3013 86.4084 26.536 86.2271 26.728C86.0457 26.9093 85.8164 27 85.5391 27C85.2617 27 85.0324 26.9093 84.8511 26.728C84.6697 26.536 84.5791 26.3013 84.5791 26.024V16.136C84.5791 15.8587 84.6697 15.6293 84.8511 15.448C85.0324 15.256 85.2617 15.16 85.5391 15.16C85.8164 15.16 86.0457 15.256 86.2271 15.448C86.4084 15.6293 86.4991 15.8587 86.4991 16.136V20.104L86.2591 20.056C86.3551 19.8747 86.4884 19.6827 86.6591 19.48C86.8297 19.2667 87.0377 19.0693 87.2831 18.888C87.5284 18.7067 87.8004 18.5627 88.0991 18.456C88.3977 18.3387 88.7231 18.28 89.0751 18.28ZM97.9861 27.16C97.0794 27.16 96.2901 26.9733 95.6181 26.6C94.9567 26.216 94.4447 25.6987 94.0821 25.048C93.7301 24.3973 93.5541 23.6613 93.5541 22.84C93.5541 21.88 93.7461 21.064 94.1301 20.392C94.5247 19.7093 95.0367 19.1867 95.6661 18.824C96.2954 18.4613 96.9621 18.28 97.6661 18.28C98.2101 18.28 98.7221 18.392 99.2021 18.616C99.6927 18.84 100.125 19.1493 100.498 19.544C100.871 19.928 101.165 20.376 101.378 20.888C101.602 21.4 101.714 21.944 101.714 22.52C101.703 22.776 101.602 22.984 101.41 23.144C101.218 23.304 100.994 23.384 100.738 23.384H94.6261L94.1461 21.784H100.018L99.6661 22.104V21.672C99.6447 21.3627 99.5327 21.0853 99.3301 20.84C99.1381 20.5947 98.8927 20.4027 98.5941 20.264C98.3061 20.1147 97.9967 20.04 97.6661 20.04C97.3461 20.04 97.0474 20.0827 96.7701 20.168C96.4927 20.2533 96.2527 20.3973 96.0501 20.6C95.8474 20.8027 95.6874 21.0747 95.5701 21.416C95.4527 21.7573 95.3941 22.1893 95.3941 22.712C95.3941 23.288 95.5114 23.7787 95.7461 24.184C95.9914 24.5787 96.3007 24.8827 96.6741 25.096C97.0581 25.2987 97.4634 25.4 97.8901 25.4C98.2847 25.4 98.5994 25.368 98.8341 25.304C99.0687 25.24 99.2554 25.1653 99.3941 25.08C99.5434 24.984 99.6767 24.904 99.7941 24.84C99.9861 24.744 100.167 24.696 100.338 24.696C100.573 24.696 100.765 24.776 100.914 24.936C101.074 25.096 101.154 25.2827 101.154 25.496C101.154 25.784 101.005 26.0453 100.706 26.28C100.429 26.5147 100.039 26.7227 99.5381 26.904C99.0367 27.0747 98.5194 27.16 97.9861 27.16ZM105.472 26.024C105.472 26.3013 105.376 26.536 105.184 26.728C105.002 26.9093 104.773 27 104.496 27C104.229 27 104.005 26.9093 103.824 26.728C103.642 26.536 103.552 26.3013 103.552 26.024V16.136C103.552 15.8587 103.642 15.6293 103.824 15.448C104.016 15.256 104.25 15.16 104.528 15.16C104.805 15.16 105.029 15.256 105.2 15.448C105.381 15.6293 105.472 15.8587 105.472 16.136V26.024ZM112.104 15.16C112.339 15.16 112.568 15.192 112.792 15.256C113.016 15.32 113.203 15.4267 113.352 15.576C113.501 15.7147 113.576 15.9013 113.576 16.136C113.576 16.4027 113.496 16.616 113.336 16.776C113.187 16.9253 113.011 17 112.808 17C112.712 17 112.568 16.9787 112.376 16.936C112.184 16.8827 111.997 16.856 111.816 16.856C111.549 16.856 111.341 16.9147 111.192 17.032C111.053 17.1493 110.957 17.288 110.904 17.448C110.851 17.5973 110.824 17.7307 110.824 17.848V26.024C110.824 26.3013 110.733 26.536 110.552 26.728C110.371 26.9093 110.141 27 109.864 27C109.587 27 109.357 26.9093 109.176 26.728C108.995 26.536 108.904 26.3013 108.904 26.024V17.864C108.904 17.1067 109.171 16.4667 109.704 15.944C110.237 15.4213 111.037 15.16 112.104 15.16ZM112.28 18.6C112.536 18.6 112.749 18.6853 112.92 18.856C113.091 19.016 113.176 19.224 113.176 19.48C113.176 19.736 113.091 19.9493 112.92 20.12C112.749 20.28 112.536 20.36 112.28 20.36H108.04C107.784 20.36 107.571 20.28 107.4 20.12C107.229 19.9493 107.144 19.736 107.144 19.48C107.144 19.224 107.229 19.016 107.4 18.856C107.571 18.6853 107.784 18.6 108.04 18.6H112.28Z" fill="white"/>
<path d="M122.843 1.17069L122.475 5.04295L125.174 7.84328L121.302 7.47479L118.502 10.1745L118.87 6.30222L116.171 3.50189L120.043 3.87038L122.843 1.17069Z" fill="#FFEB61"/>
</svg>
