<svg width="24" height="24" viewBox="0 0 24 24" fill="none" xmlns="http://www.w3.org/2000/svg">
<path d="M16.4999 21.75C16.4999 21.9489 16.4209 22.1397 16.2802 22.2803C16.1396 22.421 15.9488 22.5 15.7499 22.5H8.24988C8.05097 22.5 7.8602 22.421 7.71955 22.2803C7.5789 22.1397 7.49988 21.9489 7.49988 21.75C7.49988 21.5511 7.5789 21.3603 7.71955 21.2197C7.8602 21.079 8.05097 21 8.24988 21H15.7499C15.9488 21 16.1396 21.079 16.2802 21.2197C16.4209 21.3603 16.4999 21.5511 16.4999 21.75ZM20.2499 9.75002C20.2531 11.0003 19.9707 12.2348 19.4241 13.3593C18.8775 14.4838 18.0813 15.4686 17.0961 16.2385C16.9119 16.3797 16.7624 16.5611 16.6591 16.7689C16.5558 16.9767 16.5013 17.2054 16.4999 17.4375V18C16.4999 18.3978 16.3418 18.7794 16.0605 19.0607C15.7792 19.342 15.3977 19.5 14.9999 19.5H8.99988C8.60205 19.5 8.22052 19.342 7.93922 19.0607C7.65791 18.7794 7.49988 18.3978 7.49988 18V17.4375C7.49972 17.2082 7.447 16.982 7.34575 16.7762C7.24449 16.5705 7.09742 16.3907 6.91582 16.2506C5.93313 15.4853 5.13742 14.5065 4.58892 13.3882C4.04042 12.2699 3.7535 11.0415 3.74988 9.79595C3.7255 5.32783 7.33675 1.60689 11.8011 1.50001C12.9011 1.47351 13.9953 1.66731 15.0193 2.07003C16.0433 2.47275 16.9764 3.07624 17.7637 3.84497C18.5509 4.61371 19.1765 5.53217 19.6034 6.54628C20.0304 7.5604 20.2502 8.64968 20.2499 9.75002ZM15.5305 9.96939C15.4608 9.89966 15.3781 9.84434 15.2871 9.80659C15.196 9.76885 15.0984 9.74942 14.9999 9.74942C14.9013 9.74942 14.8037 9.76885 14.7127 9.80659C14.6216 9.84434 14.5389 9.89966 14.4693 9.96939L11.9999 12.4397L9.5305 9.96939C9.38977 9.82866 9.1989 9.7496 8.99988 9.7496C8.80086 9.7496 8.60998 9.82866 8.46925 9.96939C8.32852 10.1101 8.24946 10.301 8.24946 10.5C8.24946 10.699 8.32852 10.8899 8.46925 11.0306L11.2499 13.8103V17.25C11.2499 17.4489 11.3289 17.6397 11.4695 17.7803C11.6102 17.921 11.801 18 11.9999 18C12.1988 18 12.3896 17.921 12.5302 17.7803C12.6709 17.6397 12.7499 17.4489 12.7499 17.25V13.8103L15.5305 11.0306C15.6002 10.961 15.6556 10.8783 15.6933 10.7872C15.731 10.6962 15.7505 10.5986 15.7505 10.5C15.7505 10.4015 15.731 10.3039 15.6933 10.2128C15.6556 10.1218 15.6002 10.039 15.5305 9.96939Z" fill="#FFE954" fill-opacity="0.93"/>
</svg>
