<svg viewBox="0 0 10 14" fill="none" xmlns="http://www.w3.org/2000/svg">
	<path d="M9.0625 4.75C9.32292 4.75 9.54427 4.84115 9.72656 5.02344C9.90885 5.20573 10 5.42708 10 5.6875V10.0625C10 10.3229 9.90885 10.5443 9.72656 10.7266C9.54427 10.9089 9.32292 11 9.0625 11H0.9375C0.677083 11 0.455729 10.9089 0.273438 10.7266C0.0911458 10.5443 0 10.3229 0 10.0625V4.4375C0 4.17708 0.0911458 3.95573 0.273438 3.77344C0.455729 3.59115 0.677083 3.5 0.9375 3.5H4.0625L5.3125 4.75H9.0625Z" fill="#616467" />
	<path d="M3.07429 7.926C3.07429 8.148 3.03729 8.342 2.96329 8.508C2.89129 8.672 2.78029 8.8 2.63029 8.892C2.48029 8.984 2.28829 9.03 2.05429 9.03C1.82229 9.03 1.63029 8.984 1.47829 8.892C1.32829 8.8 1.21629 8.671 1.14229 8.505C1.07029 8.339 1.03429 8.145 1.03429 7.923C1.03429 7.701 1.07029 7.508 1.14229 7.344C1.21629 7.18 1.32829 7.053 1.47829 6.963C1.63029 6.871 1.82329 6.825 2.05729 6.825C2.28929 6.825 2.48029 6.871 2.63029 6.963C2.78029 7.053 2.89129 7.181 2.96329 7.347C3.03729 7.511 3.07429 7.704 3.07429 7.926ZM1.51129 7.926C1.51129 8.15 1.55429 8.327 1.64029 8.457C1.72629 8.585 1.86429 8.649 2.05429 8.649C2.24829 8.649 2.38729 8.585 2.47129 8.457C2.55529 8.327 2.59729 8.15 2.59729 7.926C2.59729 7.7 2.55529 7.523 2.47129 7.395C2.38729 7.267 2.24929 7.203 2.05729 7.203C1.86529 7.203 1.72629 7.267 1.64029 7.395C1.55429 7.523 1.51129 7.7 1.51129 7.926ZM4.20199 6.858C4.47799 6.858 4.67899 6.918 4.80499 7.038C4.93299 7.156 4.99699 7.319 4.99699 7.527C4.99699 7.651 4.97099 7.768 4.91899 7.878C4.86699 7.986 4.77999 8.073 4.65799 8.139C4.53799 8.205 4.37399 8.238 4.16599 8.238H3.97099V9H3.51799V6.858H4.20199ZM4.17799 7.23H3.97099V7.866H4.12099C4.24899 7.866 4.34999 7.841 4.42399 7.791C4.49999 7.739 4.53799 7.656 4.53799 7.542C4.53799 7.334 4.41799 7.23 4.17799 7.23ZM6.63478 9H5.40177V6.858H6.63478V7.23H5.85477V7.701H6.58077V8.073H5.85477V8.625H6.63478V9ZM8.97949 9H8.40349L7.47049 7.38H7.45849C7.46249 7.482 7.46649 7.584 7.47049 7.686C7.47649 7.788 7.48149 7.89 7.48549 7.992V9H7.08049V6.858H7.65349L8.58349 8.463H8.59249C8.59049 8.363 8.58749 8.264 8.58349 8.166C8.57949 8.068 8.57549 7.97 8.57149 7.872V6.858H8.97949V9Z" fill="white" />
</svg>
