<svg width="107" height="65" viewBox="0 0 107 65" fill="none" xmlns="http://www.w3.org/2000/svg">
<path d="M17.058 19.2871C19.6036 19.0556 22.0673 18.2675 24.2747 16.9788L33.8045 11.415C45.2319 4.74334 59.4723 5.21366 70.4346 12.6248L74.4892 15.3659C77.9196 17.6851 82.0002 18.8501 86.1381 18.6916L89.4982 18.5629C97.9702 18.2384 105.212 24.6072 105.972 33.0513L106.041 33.8155C106.337 37.109 105.446 40.4 103.527 43.0936C100.928 46.7438 96.7237 48.9113 92.2426 48.9113H74.9277C69.124 48.9113 63.4426 50.5793 58.56 53.7166C47.9877 60.51 34.5102 59.698 23.4889 53.6601C20.9347 52.2608 18.4581 51.0678 16.3462 50.3387C14.7165 49.7761 13.3747 49.2708 12.2702 48.8191C8.8933 47.438 5.4925 43.6565 3.07701 40.9222C1.9293 39.623 1.23996 37.9829 1.11491 36.2539L0.97297 34.2914C0.432724 26.8218 5.97395 20.2954 13.4323 19.6169L17.058 19.2871Z" fill="white"/>
<path d="M17.1888 40.528C16.7728 40.016 16.5648 39.56 16.5648 39.16C16.5648 38.744 16.9088 38.2 17.5968 37.528C17.9968 37.144 18.4208 36.952 18.8688 36.952C19.3168 36.952 19.9408 37.352 20.7408 38.152C20.9648 38.424 21.2848 38.688 21.7008 38.944C22.1168 39.184 22.5008 39.304 22.8528 39.304C24.3408 39.304 25.0848 38.696 25.0848 37.48C25.0848 37.112 24.8768 36.808 24.4608 36.568C24.0608 36.312 23.5568 36.128 22.9488 36.016C22.3408 35.904 21.6848 35.728 20.9808 35.488C20.2768 35.232 19.6208 34.936 19.0128 34.6C18.4048 34.264 17.8928 33.736 17.4768 33.016C17.0768 32.28 16.8768 31.4 16.8768 30.376C16.8768 28.968 17.3968 27.744 18.4368 26.704C19.4928 25.648 20.9248 25.12 22.7328 25.12C23.6928 25.12 24.5648 25.248 25.3488 25.504C26.1488 25.744 26.7008 25.992 27.0048 26.248L27.6048 26.704C28.1008 27.168 28.3488 27.56 28.3488 27.88C28.3488 28.2 28.1568 28.64 27.7728 29.2C27.2288 30 26.6688 30.4 26.0928 30.4C25.7568 30.4 25.3408 30.24 24.8448 29.92C24.7968 29.888 24.7008 29.808 24.5568 29.68C24.4288 29.552 24.3088 29.448 24.1968 29.368C23.8608 29.16 23.4288 29.056 22.9008 29.056C22.3888 29.056 21.9568 29.184 21.6048 29.44C21.2688 29.68 21.1008 30.024 21.1008 30.472C21.1008 30.904 21.3008 31.256 21.7008 31.528C22.1168 31.8 22.6288 31.984 23.2368 32.08C23.8448 32.176 24.5088 32.328 25.2288 32.536C25.9488 32.728 26.6128 32.968 27.2208 33.256C27.8288 33.544 28.3328 34.048 28.7328 34.768C29.1488 35.472 29.3568 36.344 29.3568 37.384C29.3568 38.424 29.1488 39.344 28.7328 40.144C28.3168 40.928 27.7728 41.536 27.1008 41.968C25.8048 42.816 24.4208 43.24 22.9488 43.24C22.1968 43.24 21.4848 43.152 20.8128 42.976C20.1408 42.784 19.5968 42.552 19.1808 42.28C18.3328 41.768 17.7408 41.272 17.4048 40.792L17.1888 40.528ZM36.533 42.952C34.917 42.952 33.573 42.344 32.501 41.128C31.445 39.896 30.917 38.4 30.917 36.64V32.44C30.917 32.056 30.925 31.776 30.941 31.6C30.973 31.424 31.045 31.216 31.157 30.976C31.381 30.544 32.005 30.328 33.029 30.328C34.149 30.328 34.805 30.632 34.997 31.24C35.093 31.496 35.141 31.904 35.141 32.464V36.664C35.141 37.32 35.325 37.832 35.693 38.2C36.077 38.568 36.581 38.752 37.205 38.752C37.845 38.752 38.357 38.56 38.741 38.176C39.141 37.792 39.341 37.288 39.341 36.664V32.416C39.341 32.048 39.349 31.776 39.365 31.6C39.397 31.408 39.477 31.192 39.605 30.952C39.813 30.536 40.429 30.328 41.453 30.328C42.461 30.328 43.077 30.544 43.301 30.976C43.413 31.216 43.477 31.432 43.493 31.624C43.525 31.8 43.541 32.072 43.541 32.44V40.936C43.541 41.288 43.525 41.56 43.493 41.752C43.477 41.928 43.405 42.128 43.277 42.352C43.037 42.768 42.421 42.976 41.429 42.976C40.453 42.976 39.853 42.784 39.629 42.4C39.469 42.128 39.389 41.8 39.389 41.416C39.325 41.528 39.181 41.688 38.957 41.896C38.733 42.104 38.517 42.28 38.309 42.424C37.765 42.776 37.173 42.952 36.533 42.952ZM45.4717 26.512C45.4717 26.144 45.4797 25.872 45.4957 25.696C45.5277 25.504 45.5997 25.288 45.7117 25.048C45.9357 24.616 46.5597 24.4 47.5837 24.4C48.5597 24.4 49.1677 24.616 49.4077 25.048C49.5357 25.288 49.6077 25.504 49.6237 25.696C49.6557 25.888 49.6717 26.168 49.6717 26.536V37.648C49.6717 38.224 49.7197 38.592 49.8157 38.752C49.9117 38.896 50.1197 38.968 50.4397 38.968C50.7757 38.968 50.9997 38.984 51.1117 39.016C51.2237 39.032 51.3597 39.096 51.5197 39.208C51.8397 39.416 51.9997 39.984 51.9997 40.912C51.9997 41.92 51.8397 42.536 51.5197 42.76C51.1037 43.048 50.1117 43.096 48.5437 42.904C47.3117 42.744 46.5117 42.336 46.1437 41.68C45.6957 40.896 45.4717 39.648 45.4717 37.936V26.512ZM59.7063 34.6L58.1463 34.504V37.816C58.1463 38.248 58.2103 38.56 58.3383 38.752C58.4823 38.944 58.7383 39.04 59.1063 39.04C59.4903 39.04 59.7783 39.056 59.9703 39.088C60.1783 39.104 60.3943 39.176 60.6183 39.304C60.9863 39.512 61.1703 40.048 61.1703 40.912C61.1703 41.92 60.9463 42.536 60.4983 42.76C60.2583 42.872 60.0423 42.944 59.8503 42.976C59.6743 42.992 59.4103 43 59.0583 43C57.3943 43 56.1303 42.624 55.2663 41.872C54.4023 41.12 53.9703 39.848 53.9703 38.056V34.504C53.6663 34.552 53.3383 34.576 52.9863 34.576C52.6343 34.576 52.3383 34.44 52.0983 34.168C51.8743 33.896 51.7623 33.432 51.7623 32.776C51.7623 32.12 51.8023 31.648 51.8823 31.36C51.9623 31.056 52.0743 30.84 52.2183 30.712C52.4743 30.504 52.7943 30.4 53.1783 30.4L53.9703 30.496V28.024C53.9703 27.656 53.9783 27.384 53.9943 27.208C54.0263 27.032 54.1063 26.84 54.2343 26.632C54.4423 26.232 55.0583 26.032 56.0823 26.032C57.1703 26.032 57.8183 26.328 58.0263 26.92C58.1063 27.176 58.1463 27.584 58.1463 28.144V30.496C58.8503 30.432 59.3783 30.4 59.7303 30.4C60.0983 30.4 60.3703 30.416 60.5463 30.448C60.7383 30.464 60.9543 30.536 61.1943 30.664C61.6103 30.872 61.8183 31.488 61.8183 32.512C61.8183 33.52 61.6023 34.136 61.1703 34.36C60.9303 34.472 60.7143 34.544 60.5223 34.576C60.3463 34.592 60.0743 34.6 59.7063 34.6ZM71.3516 31.696C71.4476 30.8 72.0796 30.352 73.2476 30.352C73.8716 30.352 74.3356 30.4 74.6396 30.496C74.9436 30.592 75.1516 30.76 75.2636 31C75.3916 31.24 75.4636 31.456 75.4796 31.648C75.5116 31.824 75.5276 32.096 75.5276 32.464V40.864C75.5276 41.232 75.5116 41.512 75.4796 41.704C75.4636 41.88 75.3996 42.088 75.2876 42.328C75.0636 42.744 74.5116 42.952 73.6316 42.952C72.7676 42.952 72.1836 42.848 71.8796 42.64C71.5916 42.416 71.4236 42.096 71.3756 41.68C70.7836 42.528 69.7916 42.952 68.3996 42.952C67.0236 42.952 65.7436 42.32 64.5596 41.056C63.3756 39.792 62.7836 38.328 62.7836 36.664C62.7836 34.984 63.3756 33.52 64.5596 32.272C65.7596 31.008 67.0716 30.376 68.4956 30.376C69.0396 30.376 69.5356 30.472 69.9836 30.664C70.4316 30.856 70.7436 31.04 70.9196 31.216C71.0956 31.376 71.2396 31.536 71.3516 31.696ZM66.9836 36.688C66.9836 37.216 67.1916 37.696 67.6076 38.128C68.0236 38.544 68.5276 38.752 69.1196 38.752C69.7116 38.752 70.1996 38.536 70.5836 38.104C70.9836 37.672 71.1836 37.2 71.1836 36.688C71.1836 36.16 70.9916 35.672 70.6076 35.224C70.2396 34.776 69.7356 34.552 69.0956 34.552C68.4716 34.552 67.9596 34.776 67.5596 35.224C67.1756 35.672 66.9836 36.16 66.9836 36.688ZM84.4725 30.352C86.0725 30.352 87.4005 30.968 88.4565 32.2C89.5285 33.416 90.0645 34.904 90.0645 36.664V40.888C90.0645 41.256 90.0485 41.536 90.0165 41.728C90.0005 41.904 89.9365 42.104 89.8245 42.328C89.6005 42.76 88.9765 42.976 87.9525 42.976C86.8165 42.976 86.1605 42.68 85.9845 42.088C85.8885 41.816 85.8405 41.408 85.8405 40.864V36.64C85.8405 35.984 85.6485 35.472 85.2645 35.104C84.8965 34.736 84.3925 34.552 83.7525 34.552C83.1285 34.552 82.6165 34.744 82.2165 35.128C81.8325 35.512 81.6405 36.016 81.6405 36.64V40.888C81.6405 41.256 81.6245 41.536 81.5925 41.728C81.5765 41.904 81.5045 42.104 81.3765 42.328C81.1685 42.76 80.5525 42.976 79.5285 42.976C78.5205 42.976 77.9045 42.76 77.6805 42.328C77.5685 42.088 77.4965 41.88 77.4645 41.704C77.4485 41.512 77.4405 41.232 77.4405 40.864V32.368C77.4405 32.016 77.4485 31.752 77.4645 31.576C77.4965 31.384 77.5765 31.176 77.7045 30.952C77.9285 30.552 78.5445 30.352 79.5525 30.352C80.5285 30.352 81.1285 30.536 81.3525 30.904C81.5125 31.176 81.5925 31.504 81.5925 31.888C81.6565 31.776 81.8005 31.616 82.0245 31.408C82.2485 31.2 82.4645 31.032 82.6725 30.904C83.2165 30.536 83.8165 30.352 84.4725 30.352Z" fill="#4A90E2"/>
<path d="M64.301 35.0858L68.191 35.1877L70.8005 32.3009L70.6987 36.191L73.5854 38.8005L69.6953 38.6986L67.0858 41.5854L67.1877 37.6953L64.301 35.0858Z" fill="#FFEB61"/>
</svg>
