<svg width="50" height="50" viewBox="0 0 50 50" fill="none" xmlns="http://www.w3.org/2000/svg">
<rect width="50" height="50" rx="25" fill="#4A90E2"/>
<path d="M27.9836 17.9235C28.3262 18.4657 28.7946 18.8663 29.3889 19.1254L30.0955 19.4335C30.5706 19.6406 30.9554 19.9316 31.2497 20.3063V22.5C31.2497 25.9518 28.4515 28.75 24.9997 28.75C21.5479 28.75 18.7497 25.9518 18.7497 22.5V17.5C18.7497 14.0482 21.5479 11.25 24.9997 11.25C26.8242 11.25 28.4661 12.0318 29.6087 13.2787L29.3886 13.3746C28.7946 13.6336 28.3262 14.0342 27.9836 14.5764C27.6612 15.0867 27.5 15.6446 27.5 16.25C27.5 16.8554 27.6612 17.4132 27.9836 17.9235ZM13.8184 23.75H16.3383C16.9448 27.9904 20.5916 31.25 24.9997 31.25C29.4077 31.25 33.0545 27.9904 33.6611 23.75H36.181C35.6046 28.9645 31.4642 33.1049 26.2497 33.6814V38.75H23.7497V33.6814C18.5352 33.1049 14.3948 28.9645 13.8184 23.75ZM34.3335 20.8672L34.6417 20.1601C35.1911 18.8993 36.1806 17.8955 37.4154 17.3464L38.3649 16.924C38.8784 16.6957 38.8784 15.9485 38.3649 15.7202L37.4685 15.3214C36.202 14.7581 35.1947 13.7172 34.6547 12.4135L34.3382 11.6494C34.1177 11.1169 33.3822 11.1169 33.1616 11.6494L32.8451 12.4135C32.3052 13.7172 31.298 14.7581 30.0315 15.3214L29.135 15.7202C28.6216 15.9485 28.6216 16.6957 29.135 16.924L30.0846 17.3464C31.3194 17.8955 32.3089 18.8993 32.8582 20.1601L33.1664 20.8672C33.392 21.3849 34.108 21.3849 34.3335 20.8672Z" fill="white"/>
</svg>
