<svg width="18" height="18" viewBox="0 0 18 18" fill="none" xmlns="http://www.w3.org/2000/svg">
<path fill-rule="evenodd" clip-rule="evenodd" d="M1.46664 8.99997C1.46664 5.21944 4.41305 1.46664 8.99997 1.46664C12.7044 1.46664 14.5353 4.20853 15.3156 5.66667H13C12.6319 5.66667 12.3333 5.96515 12.3333 6.33333C12.3333 6.70152 12.6319 7 13 7H17C17.3681 7 17.6667 6.70152 17.6667 6.33333V2.33333C17.6667 1.96515 17.3681 1.66667 17 1.66667C16.6319 1.66667 16.3333 1.96515 16.3333 2.33333V4.75091C15.394 3.09501 13.2212 0.133301 8.99997 0.133301C3.58288 0.133301 0.133301 4.58049 0.133301 8.99997C0.133301 13.4195 3.58288 17.8667 8.99997 17.8667C11.5918 17.8667 13.7496 16.8411 15.286 15.2779C16.1087 14.4408 16.7511 13.452 17.1891 12.3876C17.3292 12.0471 17.1668 11.6575 16.8264 11.5174C16.4859 11.3773 16.0963 11.5397 15.9561 11.8802C15.5817 12.79 15.0335 13.6327 14.3351 14.3432C13.0393 15.6617 11.2201 16.5333 8.99997 16.5333C4.41305 16.5333 1.46664 12.7805 1.46664 8.99997Z" fill="#4A90E2"/>
</svg>
