<svg width="18" height="24" viewBox="0 0 18 24" fill="none" xmlns="http://www.w3.org/2000/svg">
<path d="M9.89319 9.3683C10.0427 8.8733 10.6762 8.8733 10.8257 9.3683L11.7025 12.2738C11.8955 12.9125 12.2207 13.4928 12.6522 13.9688C13.0838 14.4447 13.6099 14.8032 14.1888 15.0158L16.8206 15.9833C17.2691 16.1483 17.2691 16.8473 16.8206 17.0123L14.1874 17.9798C13.6086 18.1927 13.0827 18.5515 12.6514 19.0278C12.2201 19.504 11.8952 20.0845 11.7025 20.7233L10.8257 23.6273C10.7935 23.7357 10.731 23.8301 10.6473 23.897C10.5636 23.9639 10.4628 23.9999 10.3595 23.9999C10.2561 23.9999 10.1553 23.9639 10.0716 23.897C9.98786 23.8301 9.92543 23.7357 9.89319 23.6273L9.01639 20.7218C8.82354 20.0832 8.49858 19.503 8.06727 19.0271C7.63596 18.5512 7.11014 18.1926 6.53146 17.9798L3.89835 17.0123C3.80012 16.9767 3.71458 16.9078 3.65394 16.8154C3.5933 16.723 3.56064 16.6119 3.56064 16.4978C3.56064 16.3837 3.5933 16.2725 3.65394 16.1802C3.71458 16.0878 3.80012 16.0189 3.89835 15.9833L6.53146 15.0158C7.11014 14.803 7.63596 14.4444 8.06727 13.9685C8.49858 13.4926 8.82354 12.9123 9.01639 12.2738L9.89319 9.3683ZM4.64193 1.71981C4.66142 1.65485 4.69897 1.59833 4.74924 1.55826C4.79952 1.5182 4.85995 1.49663 4.92196 1.49663C4.98397 1.49663 5.04441 1.5182 5.09468 1.55826C5.14495 1.59833 5.1825 1.65485 5.20199 1.71981L5.72807 3.46281C5.96324 4.23981 6.51515 4.84881 7.2193 5.10831L8.79889 5.68881C8.85776 5.71032 8.90899 5.75175 8.9453 5.80722C8.98161 5.86269 9.00115 5.92938 9.00115 5.99781C9.00115 6.06623 8.98161 6.13292 8.9453 6.18839C8.90899 6.24386 8.85776 6.2853 8.79889 6.30681L7.2193 6.88731C6.87181 7.01456 6.55605 7.22959 6.29716 7.51526C6.03826 7.80094 5.8434 8.14937 5.72807 8.5328L5.20199 10.2758C5.1825 10.3408 5.14495 10.3973 5.09468 10.4374C5.04441 10.4774 4.98397 10.499 4.92196 10.499C4.85995 10.499 4.79952 10.4774 4.74924 10.4374C4.69897 10.3973 4.66142 10.3408 4.64193 10.2758L4.11585 8.5328C4.00053 8.14937 3.80566 7.80094 3.54677 7.51526C3.28788 7.22959 2.97211 7.01456 2.62462 6.88731L1.04503 6.30681C0.986162 6.2853 0.934934 6.24386 0.898625 6.18839C0.862316 6.13292 0.842773 6.06623 0.842773 5.99781C0.842773 5.92938 0.862316 5.86269 0.898625 5.80722C0.934934 5.75175 0.986162 5.71032 1.04503 5.68881L2.62462 5.10831C2.97211 4.98105 3.28788 4.76602 3.54677 4.48035C3.80566 4.19468 4.00053 3.84625 4.11585 3.46281L4.64193 1.71981ZM14.2513 0.146315C14.2648 0.103604 14.2899 0.0665688 14.3233 0.0403573C14.3567 0.0141459 14.3966 6.10352e-05 14.4376 6.10352e-05C14.4785 6.10352e-05 14.5185 0.0141459 14.5519 0.0403573C14.5852 0.0665688 14.6104 0.103604 14.6238 0.146315L14.9745 1.30731C15.1309 1.82631 15.4992 2.23281 15.9696 2.40531L17.0217 2.79231C17.0604 2.80712 17.094 2.83487 17.1178 2.8717C17.1415 2.90852 17.1543 2.95261 17.1543 2.99781C17.1543 3.04302 17.1415 3.0871 17.1178 3.12393C17.094 3.16076 17.0604 3.1885 17.0217 3.20331L15.9696 3.59031C15.738 3.67581 15.5276 3.81949 15.3549 4.01003C15.1822 4.20057 15.052 4.43277 14.9745 4.68831L14.6238 5.84931C14.6104 5.89202 14.5852 5.92905 14.5519 5.95526C14.5185 5.98148 14.4785 5.99556 14.4376 5.99556C14.3966 5.99556 14.3567 5.98148 14.3233 5.95526C14.2899 5.92905 14.2648 5.89202 14.2513 5.84931L13.9006 4.68831C13.8231 4.43277 13.6929 4.20057 13.5202 4.01003C13.3476 3.81949 13.1371 3.67581 12.9056 3.59031L11.8548 3.20331C11.8161 3.1885 11.7825 3.16076 11.7587 3.12393C11.735 3.0871 11.7222 3.04302 11.7222 2.99781C11.7222 2.95261 11.735 2.90852 11.7587 2.8717C11.7825 2.83487 11.8161 2.80712 11.8548 2.79231L12.9069 2.40531C13.3773 2.23281 13.7456 1.82631 13.902 1.30731L14.2513 0.146315Z" fill="#FFEB61" fill-opacity="0.5"/>
</svg>
